<?xml version="1.0" encoding="utf-8"?>
<!-- Generator: Adobe Illustrator 27.8.1, SVG Export Plug-In . SVG Version: 6.00 Build 0)  -->
<svg version="1.1" id="Layer_1" xmlns="http://www.w3.org/2000/svg" xmlns:xlink="http://www.w3.org/1999/xlink" x="0px" y="0px"
	 viewBox="0 0 27.4 35.1" style="enable-background:new 0 0 27.4 35.1;" xml:space="preserve">
<path d="M13.7,16.7c0.8,0,1.5-0.3,2-0.8c0.6-0.6,0.8-1.2,0.8-2c0-0.8-0.3-1.5-0.8-2c-0.6-0.5-1.2-0.8-2-0.8c-0.8,0-1.5,0.3-2,0.8
	c-0.5,0.6-0.8,1.2-0.8,2s0.3,1.5,0.8,2C12.3,16.4,12.9,16.7,13.7,16.7z M13.7,33.5c3.8-3.2,6.8-6.6,9.1-10.2s3.5-6.6,3.5-9.2
	c0-3.8-1.2-6.9-3.5-9.3c-2.4-2.5-5.4-3.7-9-3.7s-6.7,1.2-9,3.7c-2.4,2.5-3.5,5.6-3.5,9.3c0,2.6,1.2,5.6,3.5,9.2S10,30.3,13.7,33.5z
	 M13.7,35c-4.5-4-7.9-7.8-10.2-11.3S0.1,17,0.1,14.2c0-4,1.3-7.3,3.9-10s5.9-4,9.7-4s7.1,1.3,9.7,4s3.9,6,3.9,10
	c0,2.8-1.2,6-3.5,9.5S18.2,31,13.7,35z"/>
</svg>
